<svg xmlns="http://www.w3.org/2000/svg" width="400" height="400" viewBox="0 0 400 400">
  <rect width="400" height="400" fill="transparent"/>
  <g fill="#ffffff">
    <circle cx="20" cy="40" r="0.6" opacity="0.7"/>
    <circle cx="65" cy="120" r="0.4" opacity="0.5"/>
    <circle cx="140" cy="55" r="0.8" opacity="0.85"/>
    <circle cx="200" cy="180" r="0.5" opacity="0.6"/>
    <circle cx="280" cy="80" r="0.7" opacity="0.7"/>
    <circle cx="350" cy="160" r="0.4" opacity="0.5"/>
    <circle cx="370" cy="40" r="0.5" opacity="0.6"/>
    <circle cx="90" cy="220" r="0.6" opacity="0.7"/>
    <circle cx="30" cy="300" r="0.5" opacity="0.55"/>
    <circle cx="170" cy="320" r="0.4" opacity="0.5"/>
    <circle cx="240" cy="280" r="0.7" opacity="0.7"/>
    <circle cx="320" cy="350" r="0.5" opacity="0.55"/>
    <circle cx="60" cy="380" r="0.6" opacity="0.65"/>
    <circle cx="385" cy="260" r="0.4" opacity="0.5"/>
    <circle cx="100" cy="160" r="0.4" opacity="0.5"/>
    <circle cx="260" cy="220" r="0.5" opacity="0.55"/>
    <circle cx="190" cy="260" r="0.4" opacity="0.5"/>
    <circle cx="40" cy="200" r="0.7" opacity="0.7"/>
    <circle cx="220" cy="40" r="0.4" opacity="0.5"/>
    <circle cx="120" cy="370" r="0.5" opacity="0.55"/>
    <circle cx="305" cy="300" r="0.6" opacity="0.65"/>
    <circle cx="345" cy="220" r="0.4" opacity="0.5"/>
    <circle cx="155" cy="140" r="0.5" opacity="0.55"/>
    <circle cx="80" cy="80" r="0.4" opacity="0.5"/>
    <circle cx="245" cy="350" r="0.4" opacity="0.5"/>
    <circle cx="375" cy="385" r="0.6" opacity="0.7"/>
  </g>
</svg>
